<svg width="388" height="85" viewBox="0 0 388 85" fill="none" xmlns="http://www.w3.org/2000/svg">
<path d="M0.552 0.759994H12.304V40.488L31.648 0.759994H42.568L25.928 37.888L45.272 85H33.832L17.712 45.48L12.304 55.256V85H0.552V0.759994ZM75.8098 0.759994H92.7618C101.29 0.759994 107.53 2.52799 111.482 6.06399C115.503 9.53066 117.514 15.216 117.514 23.12C117.514 33.936 114.047 40.488 107.114 42.776L119.074 85H107.738L96.7138 45.48H87.5618V85H75.8098V0.759994ZM92.0338 37.056C97.0951 37.056 100.7 36.0507 102.85 34.04C105.068 32.0293 106.178 28.3893 106.178 23.12C106.178 19.6533 105.796 16.9493 105.034 15.008C104.271 12.9973 102.919 11.5413 100.978 10.64C99.0365 9.66933 96.2978 9.184 92.7618 9.184H87.5618V37.056H92.0338ZM153.505 0.759994H186.161V9.496H165.257V37.368H182.209V45.688H165.257V76.576H186.369V85H153.505V0.759994ZM220.974 0.759994H232.518L247.39 69.088L262.366 0.759994H273.806L275.366 85H265.902L264.966 23.848L250.718 85H244.062L229.918 23.848L228.982 85H219.414L220.974 0.759994ZM312.044 0.759994H344.7V9.496H323.796V37.368H340.748V45.688H323.796V76.576H344.908V85H312.044V0.759994ZM376.705 72.624H387.833V85H376.705V72.624Z" fill="#F2F2F2"/>
</svg>
