<svg width="97" height="311" viewBox="0 0 97 311" fill="none" xmlns="http://www.w3.org/2000/svg">
<path d="M7.04785 0.23999H17.8959V36.912L35.7519 0.23999H45.8319L30.4719 34.512L48.3279 78H37.7679L22.8879 41.52L17.8959 50.544V78H7.04785V0.23999Z" fill="#F2F2F2"/>
<path d="M54.5791 0.23999H70.2271C78.0991 0.23999 83.8591 1.87199 87.5071 5.13599C91.2191 8.33599 93.0751 13.584 93.0751 20.88C93.0751 30.864 89.8751 36.912 83.4751 39.024L94.5151 78H84.0511L73.8751 41.52H65.4271V78H54.5791V0.23999ZM69.5551 33.744C74.2271 33.744 77.5551 32.816 79.5391 30.96C81.5871 29.104 82.6111 25.744 82.6111 20.88C82.6111 17.68 82.2591 15.184 81.5551 13.392C80.8511 11.536 79.6031 10.192 77.8111 9.35999C76.0191 8.46399 73.4911 8.016 70.2271 8.016H65.4271V33.744H69.5551Z" fill="#F2F2F2"/>
<path d="M6.04785 89.24H36.1919V97.304H16.8959V123.032H32.5439V130.712H16.8959V159.224H36.3839V167H6.04785V89.24Z" fill="#F2F2F2"/>
<path d="M46.3896 89.24H57.0456L70.7736 152.312L84.5976 89.24H95.1576L96.5976 167H87.8616L86.9976 110.552L73.8456 167H67.7016L54.6456 110.552L53.7816 167H44.9496L46.3896 89.24Z" fill="#F2F2F2"/>
<path d="M6.048 182.24H36.192V190.304H16.896V216.032H32.544V223.712H16.896V252.224H36.384V260H6.048V182.24Z" fill="#F2F2F2"/>
<path d="M81.7041 248.576H91.9761V260H81.7041V248.576Z" fill="#F2F2F2"/>
</svg>
