<svg width="26" height="26" viewBox="0 0 26 26" fill="none" xmlns="http://www.w3.org/2000/svg">
<g clip-path="url(#clip0)">
<path d="M13 0.541626C5.8175 0.541626 0 6.26163 0 13.3163C0 18.9615 3.7245 23.7488 8.88875 25.4366C9.53875 25.5569 9.77708 25.1615 9.77708 24.8224C9.77708 24.519 9.76625 23.7152 9.76083 22.6503C6.14467 23.4205 5.382 20.9365 5.382 20.9365C4.7905 19.462 3.93575 19.0677 3.93575 19.0677C2.75817 18.2758 4.02675 18.292 4.02675 18.292C5.33217 18.3809 6.01792 19.6083 6.01792 19.6083C7.17708 21.5615 9.061 20.9971 9.80417 20.671C9.92117 19.8445 10.2559 19.2822 10.6275 18.9626C7.74042 18.643 4.706 17.5445 4.706 12.65C4.706 11.2558 5.20975 10.1161 6.04392 9.22238C5.89767 8.89954 5.45892 7.60063 6.15767 5.84129C6.15767 5.84129 7.24642 5.49896 9.73267 7.15104C10.7727 6.86721 11.8777 6.72638 12.9827 6.71988C14.0877 6.72638 15.1927 6.86721 16.2327 7.15104C18.7027 5.49896 19.7914 5.84129 19.7914 5.84129C20.4902 7.60063 20.0514 8.89954 19.9214 9.22238C20.7502 10.1161 21.2539 11.2558 21.2539 12.65C21.2539 17.5575 18.2152 18.6376 15.3227 18.9518C15.7777 19.3353 16.2002 20.1185 16.2002 21.3156C16.2002 23.0251 16.1839 24.3988 16.1839 24.8137C16.1839 25.1485 16.4114 25.5482 17.0777 25.4204C22.2788 23.7434 26 18.9529 26 13.3163C26 6.26163 20.1793 0.541626 13 0.541626Z" fill="#5F5F5F"/>
</g>
<defs>
<clipPath id="clip0">
<rect width="26" height="26" fill="white"/>
</clipPath>
</defs>
</svg>
