<svg width="26" height="26" viewBox="0 0 26 26" fill="none" xmlns="http://www.w3.org/2000/svg">
<path d="M13 0C5.8214 0 0 5.8214 0 13C0 20.1786 5.8214 26 13 26C20.1786 26 26 20.1786 26 13C26 5.8214 20.1786 0 13 0ZM9.22235 19.6523H6.05626V10.1271H9.22235V19.6523ZM7.6394 8.82642H7.61877C6.55634 8.82642 5.8692 8.09505 5.8692 7.18098C5.8692 6.24629 6.57736 5.53516 7.66043 5.53516C8.7435 5.53516 9.41 6.24629 9.43063 7.18098C9.43063 8.09505 8.7435 8.82642 7.6394 8.82642ZM20.6386 19.6523H17.4729V14.5566C17.4729 13.2759 17.0145 12.4025 15.8689 12.4025C14.9944 12.4025 14.4734 12.9917 14.2445 13.5604C14.1608 13.7639 14.1404 14.0484 14.1404 14.333V19.6523H10.9745C10.9745 19.6523 11.016 11.0207 10.9745 10.1271H14.1404V11.4758C14.5611 10.8267 15.3139 9.90353 16.9937 9.90353C19.0767 9.90353 20.6386 11.2649 20.6386 14.1906V19.6523Z" fill="#5F5F5F"/>
</svg>
